<svg width="394" height="89" viewBox="0 0 394 89" fill="none" xmlns="http://www.w3.org/2000/svg">
<path d="M64.3926 64.3711L7.37695 80.9248L25.7695 23.9082L80.9463 7.35547L64.3926 64.3711ZM44.167 34.9453C39.0881 34.9453 34.9707 39.0627 34.9707 44.1416C34.9708 49.2204 39.0882 53.3379 44.167 53.3379C49.2458 53.3378 53.3632 49.2204 53.3633 44.1416C53.3633 39.0628 49.2458 34.9454 44.167 34.9453Z" fill="white"/>
<path d="M320.385 48.9802V74.9257H333.207V46.1753C333.207 34.5549 329.701 25.5391 315.777 25.5391C308.765 25.5391 303.856 28.6445 301.251 33.7535H300.951L301.051 26.4406H288.229V74.9257H301.051V50.7833C301.051 42.6691 303.756 36.0575 311.67 36.0575C319.083 36.0575 320.385 41.7675 320.385 48.9802Z" fill="white"/>
<path d="M264.745 69.3159L264.945 74.9257H277.266V47.177C277.266 38.9626 275.463 34.5549 271.957 31.1489C268.351 27.7429 263.442 25.5391 254.827 25.5391C246.412 25.5391 239.6 28.4442 235.894 30.648L239.801 38.8624C241.904 37.2596 247.214 34.8554 253.625 34.8554C260.337 34.8554 264.444 37.7605 264.444 43.9714V45.2737L252.824 46.0751C242.806 46.7763 232.889 50.6832 232.889 60.8009C232.889 70.9187 240.502 76.0276 249.919 76.0276C257.131 76.0276 262.741 72.822 264.745 69.3159ZM255.829 53.5883L264.544 53.0874V62.003C262.841 64.4073 259.135 67.3124 254.126 67.3124C248.817 67.3124 245.711 64.5074 245.711 60.4002C245.711 56.293 249.017 53.989 255.829 53.5883Z" fill="white"/>
<path d="M166.663 54.7904H202.325C202.325 54.7904 202.526 50.7834 202.526 48.279C202.526 35.3563 193.51 25.5391 178.584 25.5391C164.759 25.5391 153.439 35.9573 153.439 51.4846C153.439 67.112 164.258 76.0276 178.884 76.0276C190.705 76.0276 198.018 71.0189 200.722 68.2139L195.714 61.3018C193.41 63.3053 187.599 66.2104 181.088 66.2104C173.775 66.2104 167.865 62.5039 166.663 54.7904ZM178.483 35.0558C187.499 35.0558 189.503 41.1665 189.703 46.4758H166.462C166.863 40.3651 170.87 35.0558 178.483 35.0558Z" fill="white"/>
<path d="M125.577 12.2617V64.0998H149.719V74.9188H112.654V12.2617L125.577 12.2617Z" fill="white"/>
<path d="M224.289 12.2617V74.9188H211.566V12.2617L224.289 12.2617Z" fill="white"/>
<path fill-rule="evenodd" clip-rule="evenodd" d="M393.876 12.2617V74.9188H381.755L381.655 67.3055H381.355C377.448 73.5164 371.437 76.0208 364.725 76.0208C350.5 76.0208 341.785 65.0014 341.785 50.5761C341.785 36.852 350.901 25.5322 365.627 25.5322C372.138 25.5322 377.648 27.9364 381.054 33.1455H381.254C381.154 30.9417 381.154 28.3371 381.154 24.9311V12.2617L393.876 12.2617ZM354.808 50.5761C354.808 58.9909 360.017 65.6025 368.332 65.6025C376.045 65.6025 381.455 59.6921 381.455 50.5761C381.455 42.4619 376.145 35.3494 367.931 35.3494C359.616 35.3494 354.808 42.4619 354.808 50.5761Z" fill="white"/>
</svg>
