<svg width="140" height="42" viewBox="0 0 140 42" fill="none" xmlns="http://www.w3.org/2000/svg">
<g clip-path="url(#clip0_954_4235)">
<path d="M86.833 32.8115C78.7071 38.7647 66.9291 41.941 56.7884 41.941C42.5696 41.941 29.769 36.7138 20.0848 28.0199C19.324 27.3362 20.0057 26.4045 20.9187 26.9369C31.3698 32.9809 44.2921 36.617 57.6406 36.617C66.643 36.617 76.5462 34.7657 85.6521 30.9239C87.0278 30.3431 88.1782 31.8193 86.833 32.8115Z" fill="white"/>
<path d="M90.2122 28.9698C89.1774 27.6509 83.3463 28.3466 80.7289 28.6552C79.9315 28.752 79.8098 28.0623 80.528 27.5662C85.1723 24.3173 92.793 25.2551 93.6817 26.3441C94.5704 27.4391 93.4504 35.0319 89.0861 38.6559C88.4166 39.2125 87.7775 38.9161 88.0757 38.178C89.0557 35.7458 91.253 30.2948 90.2122 28.9698Z" fill="white"/>
<path d="M80.9121 4.63055V1.47243C80.9121 0.99448 81.2773 0.673828 81.7156 0.673828H95.9405C96.397 0.673828 96.7622 1.00053 96.7622 1.47243V4.1768C96.7561 4.63055 96.3726 5.22346 95.6909 6.16121L88.3198 16.6217C91.0588 16.5552 93.9501 16.9605 96.4335 18.352C96.9935 18.6666 97.1457 19.1265 97.1883 19.5802V22.9501C97.1883 23.4099 96.677 23.9483 96.1413 23.67C91.7649 21.3892 85.952 21.1411 81.113 23.6942C80.6199 23.9604 80.1025 23.428 80.1025 22.9682V19.7678C80.1025 19.2535 80.1086 18.3762 80.626 17.5958L89.1658 5.42311H81.7338C81.2773 5.42311 80.9121 5.10246 80.9121 4.63055Z" fill="white"/>
<path d="M29.0217 24.3356H24.6939C24.28 24.3054 23.9513 23.9968 23.9209 23.6036V1.52697C23.9209 1.08531 24.2922 0.734409 24.7548 0.734409H28.7904C29.2104 0.752547 29.5451 1.07321 29.5756 1.47251V4.35839H29.6547C30.7077 1.56931 32.6859 0.268555 35.352 0.268555C38.0606 0.268555 39.7527 1.56931 40.9701 4.35839C42.017 1.56931 44.397 0.268555 46.9474 0.268555C48.7612 0.268555 50.7456 1.01271 51.9568 2.68252C53.3264 4.53988 53.0464 7.2382 53.0464 9.60377L53.0403 23.537C53.0403 23.9787 52.669 24.3356 52.2064 24.3356H47.8847C47.4526 24.3054 47.1056 23.9605 47.1056 23.537V11.8362C47.1056 10.9045 47.1908 8.58131 46.9839 7.69801C46.6613 6.21575 45.6935 5.79829 44.4396 5.79829C43.3927 5.79829 42.297 6.49405 41.8527 7.60726C41.4084 8.72046 41.451 10.5839 41.451 11.8362V23.537C41.451 23.9787 41.0797 24.3356 40.6171 24.3356H36.2954C35.8572 24.3054 35.5163 23.9605 35.5163 23.537L35.5102 11.8362C35.5102 9.37387 35.918 5.74989 32.8442 5.74989C29.7338 5.74989 29.8556 9.28311 29.8556 11.8362V23.537C29.8556 23.9787 29.4843 24.3356 29.0217 24.3356Z" fill="white"/>
<path d="M109.009 0.268555C115.431 0.268555 118.907 5.74989 118.907 12.7195C118.907 19.4532 115.066 24.7954 109.009 24.7954C102.703 24.7954 99.2705 19.3141 99.2705 12.4836C99.2705 5.61074 102.746 0.268555 109.009 0.268555ZM109.046 4.77584C105.856 4.77584 105.656 9.09556 105.656 11.7878C105.656 14.4862 105.613 20.2458 109.009 20.2458C112.363 20.2458 112.522 15.5994 112.522 12.7679C112.522 10.9045 112.442 8.67811 111.876 6.9115C111.389 5.37479 110.422 4.77584 109.046 4.77584Z" fill="white"/>
<path d="M127.232 24.3356H122.923C122.491 24.3054 122.144 23.9605 122.144 23.537L122.138 1.45436C122.174 1.04901 122.533 0.734409 122.972 0.734409H126.983C127.36 0.752547 127.671 1.00666 127.756 1.35151V4.72743H127.835C129.046 1.70847 130.744 0.268555 133.733 0.268555C135.675 0.268555 137.568 0.96431 138.785 2.87007C139.917 4.63668 139.917 7.60726 139.917 9.74292V23.6399C139.869 24.0271 139.509 24.3356 139.083 24.3356H134.744C134.348 24.3054 134.019 24.015 133.977 23.6399V11.6487C133.977 9.23472 134.257 5.70149 131.268 5.70149C130.215 5.70149 129.247 6.4033 128.766 7.4681C128.158 8.81727 128.078 10.1604 128.078 11.6487V23.537C128.072 23.9787 127.695 24.3356 127.232 24.3356Z" fill="white"/>
<path d="M69.5712 13.7902V12.8585C66.4426 12.8585 63.1375 13.524 63.1375 17.1904C63.1375 19.0477 64.1053 20.3061 65.767 20.3061C66.9843 20.3061 68.0739 19.562 68.7617 18.352C69.6138 16.8637 69.5712 15.4661 69.5712 13.7902ZM73.9355 24.275C73.6494 24.5291 73.2355 24.5472 72.9129 24.3778C71.4764 23.192 71.2208 22.6414 70.4295 21.5101C68.0556 23.918 66.3757 24.638 63.2957 24.638C59.6558 24.638 56.8193 22.4055 56.8193 17.9345C56.8193 14.4436 58.7245 12.066 61.4332 10.9044C63.7827 9.87586 67.0635 9.69436 69.5712 9.41001V8.8534C69.5712 7.83094 69.6504 6.62093 69.0478 5.73763C68.5182 4.94507 67.5078 4.61837 66.6191 4.61837C64.9696 4.61837 63.4966 5.45933 63.1375 7.20174C63.0644 7.58894 62.7783 7.9701 62.3888 7.98825L58.1889 7.54054C57.8358 7.46189 57.4463 7.17754 57.5437 6.63909C58.5115 1.58125 63.107 0.0566406 67.2217 0.0566406C69.3278 0.0566406 72.079 0.613244 73.7407 2.19835C75.8468 4.15252 75.6459 6.76009 75.6459 9.59756V16.301C75.6459 18.3157 76.4859 19.199 77.2772 20.288C77.5572 20.6752 77.618 21.141 77.265 21.4314C76.3824 22.1635 74.812 23.5248 73.9477 24.2871L73.9355 24.275Z" fill="white"/>
<path d="M12.8369 13.7902V12.8585C9.70823 12.8585 6.40309 13.524 6.40309 17.1904C6.40309 19.0477 7.37089 20.3061 9.0326 20.3061C10.25 20.3061 11.3395 19.562 12.0273 18.352C12.8795 16.8637 12.8369 15.4661 12.8369 13.7902ZM17.2011 24.275C16.915 24.5291 16.5011 24.5472 16.1785 24.3778C14.742 23.192 14.4864 22.6414 13.6951 21.5101C11.3212 23.918 9.64128 24.638 6.56134 24.638C2.92142 24.638 0.0849609 22.4055 0.0849609 17.9345C0.0849609 14.4436 1.99014 12.066 4.69878 10.9044C7.04829 9.87586 10.3291 9.69436 12.8369 9.41001V8.8534C12.8369 7.83094 12.916 6.62093 12.3134 5.73763C11.7838 4.94507 10.7734 4.61837 9.88475 4.61837C8.23523 4.61837 6.76221 5.45933 6.40309 7.20174C6.33004 7.58894 6.04396 7.9701 5.65441 7.98825L1.4545 7.54054C1.10146 7.46189 0.711903 7.17754 0.809293 6.63909C1.7771 1.58125 6.37265 0.0566406 10.4874 0.0566406C12.5934 0.0566406 15.3446 0.613244 17.0063 2.19835C19.1124 4.15252 18.9115 6.76009 18.9115 9.59756V16.301C18.9115 18.3157 19.7515 19.199 20.5428 20.288C20.8228 20.6752 20.8837 21.141 20.5306 21.4314C19.648 22.1635 18.0776 23.5248 17.2133 24.2871L17.2011 24.275Z" fill="white"/>
</g>
<defs>
<clipPath id="clip0_954_4235">
<rect width="140" height="42" fill="white"/>
</clipPath>
</defs>
</svg>
