<svg width="450" height="60" viewBox="0 0 450 60" fill="none" xmlns="http://www.w3.org/2000/svg">
<g clip-path="url(#clip0_787_2047)">
<path d="M141.45 43.1253H151.575L146.55 30.1503L141.45 43.1253ZM158.025 59.8503L154.575 50.9253H138.525L135.075 59.8503H126.525L142.725 19.8003H150.675L166.875 59.8503H158.025Z" fill="white"/>
<path d="M115.801 19.8003H108.901H99.9008H93.8258C90.0758 19.8003 87.0008 22.9503 86.9258 26.9253V27.0003C86.9258 27.0753 86.9258 27.0753 86.9258 27.1503V41.4753C86.9258 41.5503 86.9258 41.6253 86.9258 41.6253V59.8503H95.3258V44.4003H113.476V36.3753H95.3258V27.8253H115.876L115.801 19.8003H115.426C115.726 19.8003 115.801 19.8003 115.801 19.8003Z" fill="white"/>
<path d="M233.55 27.975V19.875H232.125C228.3 19.875 225.225 23.175 225.225 27.15V27.9V27.975V59.85H252.525V51.9H233.625V27.975H233.55Z" fill="white"/>
<path d="M273.825 43.575H291.75V35.775H273.825V27.675H294.225V19.875H287.475H278.475H272.4C268.575 19.875 265.5 23.175 265.5 27.15V27.75V59.85H294.45V52.05H273.825V43.575Z" fill="white"/>
<path d="M438.225 36C431.85 34.275 430.275 33.45 430.275 30.9V30.825C430.275 28.95 431.925 27.45 435 27.45C438.075 27.45 441.3 28.875 444.6 31.275L448.8 24.825C445.05 21.675 440.475 19.875 435.075 19.875C427.5 19.875 422.175 24.525 422.175 31.575V31.65C422.175 39.375 426.975 41.55 434.4 43.575C440.625 45.225 441.9 46.35 441.9 48.525V48.675C441.9 50.925 439.875 52.275 436.575 52.275C432.375 52.275 428.85 50.475 425.55 47.55L420.75 53.625C425.175 57.825 430.8 59.85 436.425 59.85C444.375 59.85 450 55.5 450 47.775V47.625C449.925 40.875 445.725 38.1 438.225 36Z" fill="white"/>
<path d="M392.699 51.9751C386.399 51.9751 382.049 46.4251 382.049 39.8251V39.6751C382.049 33.0751 386.549 27.6001 392.699 27.6001C396.374 27.6001 399.299 29.2501 402.149 31.9501L407.249 25.7251C403.874 22.2001 399.674 19.7251 392.774 19.7251C381.449 19.7251 373.574 28.7251 373.574 39.7501V39.9001C373.574 51.0001 381.599 59.7751 392.399 59.7751C399.524 59.7751 403.724 57.0751 407.474 52.8751L402.374 47.4001C399.449 50.2501 396.899 51.9751 392.699 51.9751Z" fill="white"/>
<path d="M203.851 47.775C203.851 50.775 201.601 52.125 197.926 52.125H188.026V43.35H197.701C201.976 43.35 203.851 45 203.851 47.7V47.775ZM187.951 27.525H196.201C199.726 27.525 201.676 29.025 201.676 31.65V31.8C201.676 34.725 199.351 36 195.676 36H187.951V27.525ZM205.051 38.925C207.751 37.35 210.076 34.8 210.076 30.3V30.225C210.076 24 205.351 19.95 197.701 19.875H197.551H192.901H186.826C183.001 19.875 179.926 23.175 179.926 27.15V27.375V59.925H197.926C206.551 59.925 212.176 56.25 212.176 48.975V48.825C212.176 43.425 209.401 40.725 205.051 38.925Z" fill="white"/>
<path d="M336.449 19.8003H329.549H320.549H314.474C310.649 19.8003 307.574 23.1003 307.574 27.0753V27.9003H319.124V59.7753H327.524V27.9003H339.074V19.8003H336.449Z" fill="white"/>
<path d="M351.975 27.1503V41.4753C351.975 41.5503 351.975 41.5503 351.975 41.6253V59.8503H360.375V27.9753V19.8753H358.95C355.125 19.8003 351.975 23.1003 351.975 27.1503Z" fill="white"/>
<path d="M146.474 30.15L151.574 43.125H141.449L146.474 30.15ZM142.649 19.875L126.449 59.925H134.999L138.449 51H154.499L157.949 59.925H166.724L150.524 19.875H142.649Z" fill="white"/>
<path d="M115.801 19.875H108.901H99.9008H93.8258C90.0758 19.875 87.0008 23.025 86.9258 27V27.075C86.9258 27.15 86.9258 27.15 86.9258 27.225V41.55C86.9258 41.625 86.9258 41.7 86.9258 41.7V59.925H95.3258V44.475H113.476V36.45H95.3258V27.9H115.876L115.801 19.875H115.426C115.726 19.875 115.801 19.875 115.801 19.875Z" fill="white"/>
<path d="M233.55 27.975V19.875H232.125C228.3 19.875 225.225 23.175 225.225 27.15V27.9V27.975V59.85H252.525V51.9H233.625V27.975H233.55Z" fill="white"/>
<path d="M273.825 43.6502H291.75V35.8502H273.825V27.7502H294.225V19.9502H287.475H278.475H272.4C268.575 19.9502 265.5 23.2502 265.5 27.2252V27.8252V59.9252H294.45V52.1252H273.825V43.6502Z" fill="white"/>
<path d="M438.225 36C431.85 34.275 430.275 33.45 430.275 30.9V30.825C430.275 28.95 431.925 27.45 435 27.45C438.075 27.45 441.3 28.875 444.6 31.275L448.8 24.825C445.05 21.675 440.475 19.875 435.075 19.875C427.5 19.875 422.175 24.525 422.175 31.575V31.65C422.175 39.375 426.975 41.55 434.4 43.575C440.625 45.225 441.9 46.35 441.9 48.525V48.675C441.9 50.925 439.875 52.275 436.575 52.275C432.375 52.275 428.85 50.475 425.55 47.55L420.75 53.625C425.175 57.825 430.8 59.85 436.425 59.85C444.375 59.85 450 55.5 450 47.775V47.7C449.925 40.95 445.725 38.1 438.225 36Z" fill="white"/>
<path d="M392.699 52.0503C386.399 52.0503 382.049 46.5003 382.049 39.9003V39.7503C382.049 33.1503 386.549 27.6753 392.699 27.6753C396.374 27.6753 399.299 29.3253 402.149 32.0253L407.249 25.8003C403.874 22.2753 399.674 19.8003 392.774 19.8003C381.449 19.8003 373.574 28.8003 373.574 39.8253V39.9753C373.574 51.0753 381.599 59.8503 392.399 59.8503C399.524 59.8503 403.724 57.1503 407.474 52.9503L402.374 47.4753C399.449 50.2503 396.899 52.0503 392.699 52.0503Z" fill="white"/>
<path d="M203.851 47.85C203.851 50.775 201.601 52.2 197.926 52.2H188.026V43.425H197.701C201.976 43.425 203.851 45.075 203.851 47.775V47.85ZM187.951 27.6H196.201C199.726 27.6 201.676 29.1 201.676 31.725V31.875C201.676 34.8 199.351 36.075 195.676 36.075H187.951V27.6ZM205.051 38.925C207.751 37.35 210.076 34.8 210.076 30.3V30.225C210.076 24 205.351 19.95 197.701 19.875H197.551H192.901H186.826C183.001 19.875 179.926 23.175 179.926 27.15V27.375V59.925H197.926C206.551 59.925 212.176 56.25 212.176 48.975V48.825C212.176 43.425 209.401 40.725 205.051 38.925Z" fill="white"/>
<path d="M336.449 19.875H329.549H320.549H314.474C310.649 19.875 307.574 23.175 307.574 27.15V27.975H319.124V59.85H327.524V27.975H339.074V19.875H336.449Z" fill="white"/>
<path d="M351.975 27.15V41.475C351.975 41.55 351.975 41.55 351.975 41.625V59.85H360.375V27.975V19.875H358.95C355.125 19.875 351.975 23.1 351.975 27.15Z" fill="white"/>
<path d="M64.575 3.52519C63.975 5.47519 62.85 8.1002 60.825 10.2002C60.825 10.2002 58.275 13.8752 52.125 16.4252C52.125 16.4252 48.225 18.1502 41.325 18.8252C41.325 18.8252 35.475 19.5002 26.7 19.3502C26.025 19.3502 24.75 19.2752 24.75 19.2752H24.675C16.05 19.2002 12.45 20.7002 12.45 20.7002C8.175 22.2002 5.475 26.8502 3.825 30.9002C3.75 31.0502 1.725 36.1502 0 45.3752C0 45.3752 0 45.3752 0 45.4502V24.6002C0 23.5502 0.0749996 22.4252 0.15 21.3752C0.9 14.7752 4.65 9.1502 9.975 6.0752C11.1 5.3252 16.2 3.0752 24.375 3.0002C26.85 3.0002 40.65 2.8502 46.875 2.6252C61.2 2.1002 65.325 0.0751953 65.325 0.0751953C64.95 2.4002 64.575 3.52519 64.575 3.52519ZM43.425 35.3252C35.025 39.0002 19.8 38.4752 16.95 39.0752C14.1 39.6002 7.2 38.8502 2.175 49.5752C3.225 48.2252 4.875 47.4002 6.675 47.4002C9.9 47.4002 12.525 50.1752 12.525 53.5502C12.525 56.9252 9.9 59.7002 6.675 59.7002C4.275 59.7002 2.25 58.2002 1.35 56.1002C1.275 55.8752 1.125 55.5752 1.05 55.3502C1.05 55.2752 0.975 55.2002 0.975 55.0502C0.9 54.8252 0.9 54.6752 0.9 54.4502C0.825 54.2252 0.825001 53.9252 0.825001 53.6252C0.825001 53.4002 0.825001 53.1752 0.825001 52.9502C0.900001 52.2002 0.974999 51.3752 1.05 50.6252V50.5502C1.05 50.4752 1.05 50.4002 1.05 50.3252C1.725 45.6002 3.225 40.7252 3.225 40.7252C4.05 37.8752 4.5 36.8252 4.575 36.7502C6.225 32.7002 9 28.0502 13.275 26.5502C13.275 26.5502 16.875 25.0502 25.575 25.1252H25.65H25.725C26.325 25.1252 26.925 25.1252 27.6 25.2002C36.375 25.3502 42.225 24.6752 42.225 24.6752C49.125 24.0752 53.25 22.7252 56.625 20.4002C55.95 23.1752 53.175 31.0502 43.425 35.3252Z" fill="white"/>
</g>
<defs>
<clipPath id="clip0_787_2047">
<rect width="450" height="60" fill="white"/>
</clipPath>
</defs>
</svg>
