<svg width="542" height="179" viewBox="0 0 542 179" fill="none" xmlns="http://www.w3.org/2000/svg">
<path d="M377.96 49.2842C388.588 49.2842 397.027 54.0061 401.427 59.25H402.11V51.9961H420.694V131.98C420.694 164.89 401.286 178.332 378.342 178.332C356.743 178.332 343.744 163.886 338.842 152.072L355.88 144.98C358.914 152.233 366.348 160.792 378.322 160.792C393.009 160.792 402.11 151.73 402.11 134.673V128.264H401.427C397.047 133.668 388.608 138.39 377.96 138.39C355.679 138.39 335.266 118.982 335.266 94.0078C335.266 68.8533 355.679 49.2843 377.96 49.2842ZM187.132 49.2842C211.764 49.2844 231.835 68.0101 231.835 93.8477C231.835 119.504 211.764 138.41 187.132 138.41C162.5 138.41 142.428 119.504 142.428 93.8477C142.428 68.0099 162.5 49.2842 187.132 49.2842ZM283.571 49.2842C308.203 49.2844 328.274 68.0101 328.274 93.8477C328.274 119.504 308.203 138.41 283.571 138.41C258.939 138.41 238.867 119.504 238.867 93.8477C238.867 68.03 258.939 49.2842 283.571 49.2842ZM70.2002 0C91.2961 0.00010777 106.325 8.27733 117.616 19.0664L104.275 32.4072C96.1785 24.8126 85.2081 18.9062 70.1797 18.9062C42.3328 18.9063 20.5537 41.3485 20.5537 69.1953C20.5538 97.0421 42.3329 119.484 70.1797 119.484C88.2419 119.484 98.5291 112.232 105.119 105.642C110.463 100.297 113.979 92.6619 115.365 82.2344L70.1797 82.2549V63.3486H133.89C134.512 66.6436 134.834 70.5415 134.834 74.7607C134.834 88.9453 130.957 106.486 118.46 118.982C106.305 131.64 90.7737 138.391 70.2002 138.391C32.0665 138.391 5.13305e-05 107.329 0 69.1953C0 31.0616 32.0665 0 70.2002 0ZM501.584 49.2646C524.709 49.2646 536.021 67.668 539.718 77.6133L541.747 82.6768L482.176 107.349C486.737 116.289 493.829 120.851 503.774 120.851C513.74 120.851 520.651 115.947 525.714 108.514L540.903 118.641C536.001 125.894 524.187 138.391 503.774 138.391C478.459 138.391 459.553 118.821 459.553 93.8271C459.553 67.3265 478.619 49.2648 501.584 49.2646ZM451.335 135.678H432.248V5.08301H451.335V135.678ZM187.132 66.8438C173.63 66.8438 161.997 77.8146 161.997 93.8477C161.997 109.72 173.63 120.851 187.132 120.851C200.633 120.85 212.265 109.699 212.266 93.8477C212.266 77.8148 200.633 66.844 187.132 66.8438ZM283.571 66.8438C270.07 66.8438 258.437 77.8146 258.437 93.8477C258.437 109.72 270.07 120.851 283.571 120.851C297.072 120.85 308.705 109.699 308.705 93.8477C308.705 77.8148 297.073 66.844 283.571 66.8438ZM379.708 66.8438C366.207 66.8438 354.896 78.3164 354.896 94.0078C354.896 109.539 366.207 120.851 379.708 120.851C393.029 120.851 403.496 109.539 403.496 94.0078C403.496 78.3164 393.029 66.8438 379.708 66.8438ZM502.247 66.5029C492.302 66.503 478.459 75.2832 478.961 92.4814L518.782 75.9453C516.592 70.3802 510.002 66.5029 502.247 66.5029Z" fill="white"/>
</svg>
