<svg width="110" height="32" viewBox="0 0 110 32" fill="none" xmlns="http://www.w3.org/2000/svg">
<path fill-rule="evenodd" clip-rule="evenodd" d="M108.163 31.1245C107.806 31.1231 107.463 30.9803 107.21 30.7272C106.957 30.4741 106.814 30.1313 106.812 29.7734C106.828 29.4255 106.977 29.097 107.229 28.8564C107.48 28.6157 107.815 28.4814 108.163 28.4814C108.512 28.4814 108.847 28.6157 109.098 28.8564C109.35 29.097 109.499 29.4255 109.515 29.7734C109.515 30.5135 108.91 31.1245 108.163 31.1245ZM108.163 28.1759C107.278 28.1759 106.559 28.8865 106.559 29.7734C106.559 30.6616 107.278 31.356 108.163 31.356C109.052 31.356 109.769 30.6602 109.769 29.7734C109.769 28.8865 109.05 28.1759 108.163 28.1759ZM107.861 29.6536V29.1409H108.157C108.326 29.1409 108.516 29.1918 108.516 29.3871C108.516 29.6053 108.305 29.6536 108.122 29.6536H107.861ZM108.839 29.3927C108.839 29.0076 108.51 28.8651 108.172 28.8651H107.539V30.6658H107.861V29.9135H108.094L108.516 30.6671H108.91L108.423 29.8785C108.679 29.8236 108.839 29.6521 108.839 29.3927ZM98.7364 6.56142C99.1727 6.57024 99.6064 6.49191 100.012 6.33106C100.418 6.17021 100.787 5.93004 101.099 5.62463C101.411 5.31922 101.658 4.95471 101.827 4.55241C101.997 4.15011 102.084 3.71813 102.084 3.28173C102.084 2.84533 101.997 2.41327 101.828 2.0109C101.659 1.60852 101.411 1.2439 101.1 0.938363C100.788 0.632824 100.419 0.392556 100.013 0.231542C99.6077 0.0705283 99.174 -0.00800099 98.7377 0.000643487C97.8791 0.0178295 97.0614 0.370992 96.4603 0.98431C95.8591 1.59763 95.5224 2.42222 95.5224 3.28103C95.5224 4.13984 95.8591 4.96444 96.4603 5.57775C97.0614 6.19107 97.8778 6.54423 98.7364 6.56142ZM89.9349 9.39421V14.2068H96.0206V31.1261H101.451V14.2068H107.538V9.39421H89.9349ZM42.5592 6.56142C42.99 6.56153 43.4167 6.47678 43.8148 6.31197C44.2128 6.14717 44.5746 5.9055 44.8793 5.60088C45.184 5.29626 45.4257 4.93462 45.5906 4.53658C45.7555 4.13853 45.8404 3.71188 45.8404 3.28103C45.8404 2.85018 45.7555 2.42353 45.5906 2.02549C45.4257 1.62744 45.184 1.2658 44.8793 0.961181C44.5746 0.65656 44.2128 0.414898 43.8148 0.250091C43.4167 0.0852853 42.99 0.000536186 42.5592 0.000643487C41.7005 0.0178295 40.8829 0.370992 40.2817 0.98431C39.6805 1.59763 39.3438 2.42222 39.3438 3.28103C39.3438 4.13984 39.6805 4.96444 40.2817 5.57775C40.8829 6.19107 41.7005 6.54423 42.5592 6.56142ZM33.7564 14.2054H39.8434V31.1261H45.2723V14.2068H51.3606V9.39421H33.7577L33.7564 14.2054ZM80.6988 31.1261H86.1304V9.40772H80.7001L80.6988 31.1261ZM69.7118 21.3529C69.7118 24.2491 68.0807 27.234 64.6436 27.234C61.1593 27.234 60.5712 24.023 60.5712 21.4431V9.40772H55.1409V22.9814C55.1409 27.417 57.4934 31.7599 63.1511 31.7599C66.3621 31.7599 68.942 29.8139 69.8921 27.6418H69.9822V31.1261H75.1406V9.40772H69.7117L69.7118 21.3529ZM22.982 8.77385C19.7696 8.77385 17.1911 10.7199 16.241 12.892H16.1494V9.40772H10.9924V31.1261H16.4213V19.1808C16.4213 16.2847 18.051 13.2984 21.4895 13.2984C24.9724 13.2984 25.5619 16.5108 25.5619 19.0907V31.1261H30.9907V17.5498C30.9907 13.1167 28.6397 8.77385 22.982 8.77385ZM0 31.1261H5.42891V9.40772H0V31.1261Z" fill="white"/>
</svg>
