<svg width="147" height="31" viewBox="0 0 147 31" fill="none" xmlns="http://www.w3.org/2000/svg">
<g clip-path="url(#clip0_954_4228)">
<path d="M4.81627 20.4438C4.81627 22.2259 5.18997 23.5941 5.67842 24.4218C6.31883 25.506 7.27402 25.9653 8.24782 25.9653C9.50383 25.9653 10.6528 25.6391 12.8672 22.4336C14.6411 19.8643 16.7313 16.258 18.1378 13.9971L20.5195 10.1667C22.174 7.50654 24.0891 4.54937 26.2848 2.54492C28.0773 0.908901 30.0109 0 31.957 0C35.2242 0 38.3363 1.98173 40.7181 5.69848C43.3247 9.76906 44.59 14.8962 44.59 20.1873C44.59 23.3328 43.9977 25.644 42.9897 27.4699C42.0159 29.2358 40.118 31 36.9252 31V25.9653C39.659 25.9653 40.3413 23.336 40.3413 20.3269C40.3413 16.0388 39.3861 11.2801 37.2819 7.87984C35.7886 5.46801 33.8534 3.99429 31.7244 3.99429C29.4217 3.99429 27.5687 5.81209 25.4862 9.0533C24.379 10.7753 23.2424 12.8739 21.9663 15.2419L20.5614 17.8469C17.7392 23.0845 17.0244 24.2774 15.6133 26.2461C13.1401 29.6935 11.0281 31 8.24782 31C4.94962 31 2.86402 29.5052 1.57234 27.2524C0.517911 25.4168 0 23.0082 0 20.2636L4.81627 20.4438Z" fill="white"/>
<path d="M3.79883 6.05393C6.00693 2.49136 9.19348 0 12.8483 0C14.9649 0 17.0691 0.655707 19.2664 2.53356C21.6699 4.5867 24.2315 7.96749 27.4274 13.5394L28.5733 15.539C31.3396 20.3626 32.9135 22.8442 33.8346 24.0145C35.0193 25.5174 35.8489 25.9653 36.9266 25.9653C39.6603 25.9653 40.3426 23.336 40.3426 20.3269L44.5913 20.1873C44.5913 23.3328 43.999 25.644 42.9911 27.4699C42.0173 29.2358 40.1193 31 36.9266 31C34.9417 31 33.1833 30.5488 31.2388 28.6287C29.744 27.155 27.9965 24.5371 26.6521 22.1837L22.653 15.1916C20.6465 11.6826 18.8059 9.06628 17.7406 7.88147C16.5947 6.60738 15.1216 5.06874 12.7708 5.06874C10.8682 5.06874 9.2524 6.46618 7.90025 8.60372L3.79883 6.05393Z" fill="white"/>
<path d="M12.7695 5.06874C10.8668 5.06874 9.25108 6.46618 7.89892 8.60372C5.98699 11.6242 4.81627 16.1232 4.81627 20.4438C4.81627 22.2259 5.18997 23.5941 5.67842 24.4218L1.57234 27.2524C0.517911 25.4168 0 23.0082 0 20.2636C0 15.2728 1.30873 10.0709 3.7975 6.05393C6.0056 2.49136 9.19215 0 12.847 0L12.7695 5.06874Z" fill="white"/>
<path d="M53.9531 0.97998H59.5245L68.9974 18.9178L78.4717 0.97998H83.9222V30.4543H79.3773V7.8649L71.069 23.5077H66.8048L58.498 7.8649V30.4543H53.9531V0.97998ZM98.1632 11.9696C94.9038 11.9696 92.9407 14.5372 92.4709 17.7167H103.533C103.305 14.4414 101.5 11.9696 98.1632 11.9696ZM87.9647 19.528C87.9647 12.8379 92.0956 7.96877 98.2423 7.96877C104.288 7.96877 107.898 12.7762 107.898 19.8851V21.1917H92.4709C93.0182 24.6503 95.2108 26.981 98.7463 26.981C101.567 26.981 103.33 26.0802 105.002 24.4329L107.416 27.528C105.141 29.7175 102.248 30.9802 98.585 30.9802C91.9312 30.9802 87.9647 25.9017 87.9647 19.528ZM113.409 12.3915H109.225V8.49626H113.409V2.05443H117.794V8.49626H124.15V12.3915H117.794V22.2645C117.794 25.6355 118.824 26.8333 121.354 26.8333C122.51 26.8333 123.172 26.7295 124.15 26.559V30.4121C122.931 30.7724 121.769 30.938 120.509 30.938C115.775 30.938 113.409 28.2308 113.409 22.8114V12.3915ZM142.615 16.1797C141.734 13.8523 139.77 12.1384 136.883 12.1384C133.13 12.1384 130.728 14.9251 130.728 19.4647C130.728 23.8908 132.939 26.8122 136.703 26.8122C139.661 26.8122 141.773 25.0107 142.615 22.7692V16.1797ZM147 30.4543H142.696V27.3803C141.493 29.19 139.303 30.9802 135.757 30.9802C130.054 30.9802 126.242 25.9829 126.242 19.4647C126.242 12.885 130.145 7.96877 135.999 7.96877C138.892 7.96877 141.162 9.17956 142.696 11.3171V8.49626H147V30.4543Z" fill="white"/>
</g>
<defs>
<clipPath id="clip0_954_4228">
<rect width="147" height="31" fill="white"/>
</clipPath>
</defs>
</svg>
