<svg width="1180" height="320" viewBox="0 0 1180 320" fill="none" xmlns="http://www.w3.org/2000/svg">
<g clip-path="url(#clip0_787_1839)">
<path d="M367.439 153.84C367.439 206.16 401.039 242.64 447.599 242.64C494.159 242.64 527.759 206.16 527.759 153.84C527.759 101.52 494.159 65.04 447.599 65.04C401.039 65.04 367.439 101.52 367.439 153.84ZM497.039 153.84C497.039 191.28 476.639 215.52 447.599 215.52C418.559 215.52 398.159 191.28 398.159 153.84C398.159 116.4 418.559 92.16 447.599 92.16C476.639 92.16 497.039 116.4 497.039 153.84Z" fill="white"/>
<path d="M614.271 242.64C649.551 242.64 669.711 212.88 669.711 177.12C669.711 141.36 649.551 111.6 614.271 111.6C597.951 111.6 585.951 118.08 578.031 127.44V114H549.23V283.2H578.031V226.8C585.951 236.16 597.951 242.64 614.271 242.64ZM577.31 173.52C577.31 149.76 590.75 136.8 608.51 136.8C629.39 136.8 640.67 153.12 640.67 177.12C640.67 201.12 629.39 217.44 608.51 217.44C590.75 217.44 577.31 204.24 577.31 180.96V173.52Z" fill="white"/>
<path d="M747.649 242.64C772.849 242.64 792.769 229.44 801.649 207.36L776.929 198C773.089 210.96 761.809 218.16 747.649 218.16C729.169 218.16 716.209 204.96 714.049 183.36H802.369V173.76C802.369 139.2 782.929 111.6 746.449 111.6C709.969 111.6 686.449 140.16 686.449 177.12C686.449 216 711.649 242.64 747.649 242.64ZM746.209 135.84C764.449 135.84 773.089 147.84 773.329 161.76H715.489C719.809 144.72 731.329 135.84 746.209 135.84Z" fill="white"/>
<path d="M823.98 240H852.781V166.08C852.781 148.08 865.98 138.48 878.94 138.48C894.78 138.48 901.021 149.76 901.021 165.36V240H929.82V156.96C929.82 129.84 913.981 111.6 887.581 111.6C871.261 111.6 859.981 119.04 852.781 127.44V114H823.98V240Z" fill="white"/>
<path d="M1014.17 67.6802L948.891 240H979.371L994.011 200.64H1068.41L1083.29 240H1114.25L1048.97 67.6802H1014.17ZM1030.97 101.76L1058.33 173.76H1004.09L1030.97 101.76Z" fill="white"/>
<path d="M1163.69 68.1802H1132.97V240.5H1163.69V68.1802Z" fill="white"/>
<path d="M297.059 130.97C304.319 109.18 301.819 85.31 290.209 65.49C272.749 35.09 237.649 19.45 203.369 26.81C188.119 9.63002 166.209 -0.139981 143.239 1.93887e-05C108.199 -0.0799806 77.1091 22.48 66.3291 55.82C43.8191 60.43 24.3891 74.52 13.0191 94.49C-4.57089 124.81 -0.560892 163.03 22.9391 189.03C15.6791 210.82 18.1791 234.69 29.7891 254.51C47.2491 284.91 82.3491 300.55 116.629 293.19C131.869 310.37 153.789 320.14 176.759 319.99C211.819 320.08 242.919 297.5 253.699 264.13C276.209 259.52 295.639 245.43 307.009 225.46C324.579 195.14 320.559 156.95 297.069 130.95L297.059 130.97ZM176.779 299.08C162.749 299.1 149.159 294.19 138.389 285.2C138.879 284.94 139.729 284.47 140.279 284.13L203.999 247.33C207.259 245.48 209.259 242.01 209.239 238.26V148.43L236.169 163.98C236.459 164.12 236.649 164.4 236.689 164.72V239.11C236.649 272.19 209.859 299.01 176.779 299.08ZM47.9391 244.05C40.9091 231.91 38.3791 217.68 40.7891 203.87C41.2591 204.15 42.0891 204.66 42.6791 205L106.399 241.8C109.629 243.69 113.629 243.69 116.869 241.8L194.659 196.88V227.98C194.679 228.3 194.529 228.61 194.279 228.81L129.869 266C101.179 282.52 64.5391 272.7 47.9491 244.05H47.9391ZM31.1691 104.96C38.1691 92.8 49.2191 83.5 62.3791 78.67C62.3791 79.22 62.3491 80.19 62.3491 80.87V154.48C62.3291 158.22 64.3291 161.69 67.5791 163.54L145.369 208.45L118.439 224C118.169 224.18 117.829 224.21 117.529 224.08L53.1091 186.86C24.4791 170.28 14.6591 133.65 31.1591 104.97L31.1691 104.96ZM252.429 156.45L174.639 111.53L201.569 95.99C201.839 95.81 202.179 95.78 202.479 95.91L266.899 133.1C295.579 149.67 305.409 186.36 288.839 215.04C281.829 227.18 270.789 236.48 257.639 241.32V165.51C257.669 161.77 255.679 158.31 252.439 156.45H252.429ZM279.229 116.11C278.759 115.82 277.929 115.32 277.339 114.98L213.619 78.18C210.389 76.29 206.389 76.29 203.149 78.18L125.359 123.1V92C125.339 91.68 125.489 91.37 125.739 91.17L190.149 54.01C218.839 37.46 255.519 47.31 272.059 76.01C279.049 88.13 281.579 102.32 279.209 116.11H279.229ZM110.719 171.54L83.7791 155.99C83.4891 155.85 83.2991 155.57 83.2591 155.25V80.86C83.2791 47.74 110.149 20.9 143.269 20.92C157.279 20.92 170.839 25.84 181.609 34.8C181.119 35.06 180.279 35.53 179.719 35.87L115.999 72.67C112.739 74.52 110.739 77.98 110.759 81.73L110.719 171.52V171.54ZM125.349 140L159.999 119.99L194.649 139.99V180L159.999 200L125.349 180V140Z" fill="white"/>
</g>
<defs>
<clipPath id="clip0_787_1839">
<rect width="1180" height="320" fill="white"/>
</clipPath>
</defs>
</svg>
