<svg width="512" height="123" viewBox="0 0 512 123" fill="none" xmlns="http://www.w3.org/2000/svg">
<g clip-path="url(#clip0_787_1847)">
<path d="M502.263 57.146C501.279 56.5955 500.512 55.8316 499.957 54.8558C499.403 53.88 499.127 52.7871 499.127 51.5754C499.127 50.3477 499.404 49.2467 499.957 48.271C500.51 47.2952 501.279 46.533 502.263 45.9809C503.246 45.4305 504.346 45.1545 505.563 45.1545C506.781 45.1546 507.88 45.4307 508.864 45.9812C509.847 46.5317 510.615 47.2956 511.169 48.2714C511.722 49.2472 512 50.3481 512 51.5759C512 52.7875 511.722 53.8804 511.169 54.8562C510.615 55.8319 509.847 56.5942 508.864 57.1462C507.88 57.6967 506.781 57.9727 505.563 57.9726C504.346 57.971 503.246 57.6965 502.263 57.146ZM508.254 56.1303C509.051 55.6746 509.67 55.0487 510.115 54.2543C510.56 53.4599 510.782 52.5596 510.782 51.5517C510.782 50.5455 510.56 49.6435 510.115 48.8491C509.67 48.0547 509.051 47.4336 508.254 46.9842C507.458 46.5364 506.561 46.3117 505.563 46.3116C504.549 46.3116 503.648 46.5363 502.859 46.984C502.071 47.4317 501.455 48.0544 501.01 48.8488C500.565 49.6432 500.343 50.5451 500.343 51.5514C500.343 52.5592 500.565 53.4596 501.01 54.254C501.455 55.0484 502.071 55.6743 502.859 56.1301C503.648 56.586 504.548 56.8139 505.563 56.8139C506.561 56.8156 507.459 56.5877 508.254 56.1303ZM503.129 48.4364L505.96 48.4365C506.756 48.4365 507.361 48.5938 507.774 48.9084C508.186 49.223 508.394 49.6643 508.394 50.2308C508.394 50.6401 508.262 50.9899 507.996 51.2804C507.73 51.5725 507.342 51.7731 506.826 51.8822L508.698 54.3361L506.942 54.3361L505.21 52.0458L504.578 52.0458V54.336L503.127 54.3359V48.4364L503.129 48.4364ZM506.897 50.2533C506.897 49.7814 506.523 49.5455 505.773 49.5455L504.58 49.5454V50.9144L505.75 50.9144C506.515 50.9145 506.897 50.6946 506.897 50.2533Z" fill="white"/>
<path d="M198.182 63.1476C194.717 59.6197 189.698 57.0066 183.123 55.3132L176.865 53.6198C172.764 52.5617 169.706 51.592 167.691 50.7075C165.676 49.8263 164.333 48.9081 163.661 47.9546C162.988 47.0011 162.654 45.8208 162.654 44.4075C162.654 42.0792 163.821 40.1031 166.155 38.4792C168.487 36.8568 171.881 36.045 176.337 36.0451C185.162 36.0455 196.286 41.2186 199.456 45.5119V28.9534C196.981 27.0479 193.624 25.4061 189.381 24.0295C185.138 22.653 180.578 21.9646 175.7 21.9645C169.618 21.9642 164.388 23.006 160.005 25.0865C155.62 27.1686 152.279 29.9566 149.982 33.449C147.684 36.9429 146.535 40.7006 146.535 44.7236C146.535 50.7228 148.284 55.4165 151.785 58.8045C155.285 62.1925 160.391 64.7702 167.11 66.5328L173.368 68.2262C177.327 69.2843 180.296 70.3087 182.277 71.296C184.255 72.285 185.565 73.3077 186.201 74.3657C186.837 75.4238 187.156 76.731 187.156 78.2827C187.156 80.8939 186.077 82.9585 183.922 84.4763C181.765 85.9941 178.635 86.7529 174.536 86.7528C165.283 86.7524 151.264 80.6241 146.537 72.9493V90.8793C149.011 93.4199 152.899 95.6969 158.202 97.7086C163.505 99.7203 169.196 100.726 175.277 100.726C181.003 100.726 185.988 99.7019 190.23 97.6567C194.472 95.61 197.723 92.8059 199.986 89.2412C202.248 85.6781 203.38 81.7082 203.38 77.3314C203.379 71.4061 201.645 66.6788 198.182 63.1476Z" fill="white"/>
<path d="M265.237 57.2455C263.133 52.8911 260.216 49.4613 256.488 46.9576C252.759 44.4539 248.57 43.2012 243.919 43.201C235.207 43.2007 228.488 47.41 223.764 55.8274V44.0284L208.148 44.0278V116.783L223.764 116.784V88.1596C228.488 96.4326 235.242 100.57 244.029 100.57C248.681 100.571 252.869 99.3359 256.598 96.8694C260.325 94.403 263.223 90.9911 265.291 86.6369C267.358 82.2827 268.392 77.3833 268.392 71.9405C268.392 66.4976 267.34 61.5998 265.237 57.2455ZM249.122 83.1535C246.759 85.9834 243.658 87.3982 239.82 87.3981C236.054 87.3979 232.713 85.9282 229.798 82.9888C226.88 80.0494 224.759 76.3317 223.43 71.8311C224.759 67.3322 226.88 63.6131 229.798 60.6739C232.713 57.7347 236.054 56.2652 239.82 56.2653C243.658 56.2655 246.759 57.7175 249.122 60.6199C251.484 63.524 252.666 67.2978 252.666 71.9415C252.666 76.5852 251.485 80.322 249.122 83.1535Z" fill="white"/>
<path d="M329.459 57.1549C326.874 52.7298 323.276 49.2453 318.662 46.7046C314.047 44.1655 308.786 42.8934 302.881 42.8932C296.975 42.893 291.714 44.1631 287.1 46.7034C282.485 49.2438 278.905 52.728 276.358 57.153C273.811 61.5795 272.537 66.5142 272.537 71.9571C272.537 77.3291 273.811 82.227 276.358 86.6537C278.905 91.0804 282.485 94.5649 287.1 97.104C291.714 99.6431 296.975 100.915 302.881 100.915C308.786 100.916 314.047 99.6455 318.662 97.1052C323.276 94.5664 326.874 91.0822 329.459 86.6556C332.043 82.2307 333.335 77.3314 333.335 71.9593C333.335 66.5165 332.043 61.5833 329.459 57.1549ZM313.624 83.28C310.892 86.2562 307.311 87.7434 302.881 87.7432C298.524 87.7431 294.98 86.2733 292.25 83.3339C289.518 80.3945 288.152 76.6029 288.152 71.9576C288.152 67.3139 289.518 63.5048 292.25 60.5286C294.98 57.554 298.524 56.0652 302.881 56.0654C307.237 56.0655 310.8 57.5546 313.567 60.5294C316.336 63.5058 317.72 67.3166 317.72 71.9587C317.722 76.5317 316.354 80.3054 313.624 83.28Z" fill="white"/>
<path d="M361.317 85.5729C360.025 84.2672 359.38 82.1271 359.38 79.1508V56.8343L374.502 56.8349V44.5342L359.38 44.5336V29.5107L359.268 29.5107L333.355 49.5398V56.8333L343.655 56.8337V81.4351C343.655 87.6771 345.316 92.3755 348.639 95.532C351.96 98.6885 356.427 100.268 362.039 100.268C364.326 100.268 367.972 99.8822 369.818 99.3018C371.662 98.7198 373.69 97.6007 374.65 96.7292V85.3129C369.972 89.048 363.133 87.4093 361.317 85.5729Z" fill="white"/>
<path d="M380.656 33.8595C382.389 35.4916 384.623 36.3085 387.355 36.3086C390.013 36.3087 392.208 35.492 393.945 33.86C395.678 32.2264 396.548 30.1779 396.548 27.7098C396.548 25.2432 395.68 23.1914 393.945 21.5593C392.21 19.9272 390.013 19.1103 387.355 19.1102C384.623 19.1101 382.389 19.9269 380.656 21.5588C378.921 23.1908 378.053 25.2425 378.053 27.7091C378.054 30.1773 378.921 32.2258 380.656 33.8595ZM379.493 99.2283L395.219 99.2289V44.5351L379.493 44.5345V99.2283Z" fill="white"/>
<path d="M426.201 40.3877C426.525 37.9067 427.087 36.4226 428.252 34.9401C429.542 33.2984 431.312 32.1504 434.055 32.1505C435.605 32.1506 438.144 32.5945 439.561 33.0576C441.364 33.651 444.796 35.206 445.682 35.7913L440.03 22.1559C438.849 21.4966 437.264 20.8758 435.272 20.2889C433.281 19.7035 431.179 19.4108 428.965 19.4107C423.284 19.4105 418.804 21.2595 415.523 24.956C412.24 28.6541 410.599 33.4312 410.599 39.2889V44.5613L400.771 44.5609V56.9709L410.599 56.9713V99.2551L426.2 99.2556V56.9703L440.805 56.9708V44.5608L426.2 44.5603V40.3877L426.201 40.3877Z" fill="white"/>
<path d="M446.329 116.691L463.243 116.692L495.254 44.5628L479.431 44.5623L464.937 79.2673L450.334 44.5612L432.963 44.5605L456.529 95.0826L446.329 116.691Z" fill="white"/>
<path d="M64.044 0.0493063C30.054 -1.30004 1.40392 25.1183 0.0592811 59.0581C-1.2918 92.9979 25.1721 121.601 59.1588 122.95C93.1503 124.301 121.792 97.8829 123.143 63.9415C124.488 30.0017 98.0291 1.39545 64.044 0.0493063ZM90.0419 90.1414C89.276 91.4911 87.7847 92.165 86.332 91.9628C85.887 91.9002 85.4421 91.7541 85.0261 91.5182C76.8857 86.891 68.0134 83.8784 58.6574 82.562C49.3013 81.2457 39.9389 81.7011 30.836 83.9107C28.8593 84.3889 26.873 83.1803 26.3942 81.2063C25.9153 79.2339 27.1261 77.2487 29.1012 76.7705C39.1102 74.3427 49.4013 73.8424 59.6812 75.2872C69.961 76.7319 79.7104 80.0431 88.6682 85.1309C90.4304 86.1372 91.0495 88.3745 90.0467 90.1398L90.0419 90.1398L90.0419 90.1414ZM98.1371 73.9983C96.8811 76.3141 93.9774 77.179 91.6574 75.9255C82.1321 70.7815 71.8183 67.4029 61.0048 65.8843C50.1897 64.3657 39.3472 64.7761 28.7706 67.098C28.1967 67.2215 27.6275 67.244 27.0761 67.1653C25.1559 66.8956 23.513 65.4672 23.0729 63.4611C22.5037 60.8869 24.137 58.34 26.715 57.772C38.4072 55.203 50.3928 54.7493 62.3382 56.4236C74.2787 58.0995 85.6774 61.8329 96.2056 67.5209C98.5305 68.7744 99.3914 71.6696 98.1371 73.9902V73.9983ZM107.109 55.8026C105.928 58.0734 103.467 59.2481 101.07 58.911C100.422 58.8211 99.7865 58.6188 99.1722 58.3043C88.0813 52.5424 76.136 48.7368 63.6667 46.987C51.1974 45.2388 38.6603 45.6091 26.4103 48.093C23.2244 48.7396 20.1224 46.6821 19.4743 43.506C18.8261 40.3251 20.8866 37.2278 24.0676 36.5811C37.6349 33.8325 51.5053 33.4238 65.3048 35.3565C79.1026 37.2909 92.3216 41.5074 104.604 47.8872C107.487 49.3831 108.606 52.9299 107.109 55.8074V55.8026Z" fill="white"/>
</g>
<defs>
<clipPath id="clip0_787_1847">
<rect width="512" height="123" fill="white"/>
</clipPath>
</defs>
</svg>
